<svg width="250" height="251" viewBox="0 0 250 251" fill="none" xmlns="http://www.w3.org/2000/svg">
<path d="M92.7143 8.10695C82.9461 -1.66126 67.134 -1.66126 57.3821 8.10695L7.39768 58.1078C2.70959 62.7958 0.0796839 69.1501 0.0796839 75.782L0.0143433 238.264C0.0143433 244.52 6.27058 250.76 12.5268 250.76H37.617C43.8733 250.76 50.1295 244.504 50.1295 238.264L50.0642 90.5487C50.3092 86.2689 52.008 82.1689 55.2423 78.9183L68.5552 65.5728C70.3356 64.1353 72.6062 63.2696 75.0727 63.2696C77.5393 63.2696 79.7935 64.1353 81.5903 65.5564L94.9032 78.902C98.1374 82.1362 99.8363 86.2526 100.081 90.5323L99.9996 170.573C99.9996 177.466 102.793 183.69 107.334 188.247L116.171 197.084C121.072 201.985 128.978 201.952 133.845 197.084L142.682 188.247C147.174 183.755 150 177.466 150 170.589L150.082 75.7657C150.082 69.1338 147.452 62.7795 142.764 58.0914L92.7143 8.10695ZM249.969 75.831C249.969 69.1991 247.323 62.8448 242.635 58.1568L188.73 4.13759C184.271 -0.321807 175.515 -0.321807 171.056 4.13759L153.333 21.3708C148.922 25.7812 149.053 33.7526 153.463 38.163L195.133 79.3103C198.531 82.708 199.903 86.0566 200.001 90.565V220.606C200.001 227.5 202.778 233.723 207.319 238.281L216.156 247.118C221.057 252.018 228.963 251.985 233.831 247.118L242.668 238.281C247.16 233.788 249.986 227.5 249.986 220.623L249.969 75.831Z" fill="#FF8F08"/>
</svg>
