<svg width="244" height="271" viewBox="0 0 244 271" fill="none" xmlns="http://www.w3.org/2000/svg">
<path d="M239.785 18.347L226.285 4.84703C223.653 2.21453 220.197 0.891528 216.741 0.891528L162.687 0.797028C155.235 0.797028 149.187 6.84503 149.187 14.297V41.297C149.187 48.749 155.235 54.797 162.687 54.797C162.687 54.797 216.714 54.8915 216.741 54.8915C220.197 54.8915 223.653 53.5685 226.285 50.936L239.785 37.436C245.05 32.1575 245.05 23.612 239.785 18.347Z" fill="#180C25"/>
<path d="M141.343 62.708L87.4106 8.78903C82.3481 3.72653 75.4766 0.891528 68.3216 0.891528L14.2136 0.797028C6.76162 0.797028 0.713623 6.84503 0.713623 14.297V41.297C0.713623 48.749 6.76162 54.797 14.2136 54.797C14.2136 54.797 50.6501 54.932 52.0001 54.932C55.5371 54.932 58.9796 56.687 61.5041 59.3195L91.4066 89.1545C93.7016 91.625 95.2136 94.8245 95.2136 98.051C95.2271 146.665 95.2541 195.278 95.2541 243.892C95.2811 247.321 96.5906 250.736 99.2096 253.342L112.71 266.842C115.342 269.474 118.798 270.797 122.254 270.797C125.71 270.797 129.166 269.474 131.799 266.842L145.299 253.342C147.918 250.723 149.227 247.307 149.254 243.865C149.254 189.842 149.254 135.82 149.254 81.797C149.254 74.6285 146.406 67.7705 141.343 62.708Z" fill="#180C25"/>
</svg>
