<svg width="244" height="271" viewBox="0 0 244 271" fill="none" xmlns="http://www.w3.org/2000/svg">
<path d="M239.917 18.2154L226.417 4.71541C223.785 2.08291 220.329 0.759905 216.873 0.759905L162.819 0.665405C155.367 0.665405 149.319 6.71341 149.319 14.1654V41.1654C149.319 48.6174 155.367 54.6654 162.819 54.6654C162.819 54.6654 216.846 54.7599 216.873 54.7599C220.329 54.7599 223.785 53.4369 226.417 50.8044L239.917 37.3044C245.182 32.0259 245.182 23.4804 239.917 18.2154Z" fill="#42E21E"/>
<path d="M141.475 62.5764L87.5428 8.65741C82.4803 3.59491 75.6088 0.759905 68.4538 0.759905L14.3458 0.665405C6.89382 0.665405 0.845825 6.71341 0.845825 14.1654V41.1654C0.845825 48.6174 6.89382 54.6654 14.3458 54.6654C14.3458 54.6654 50.7823 54.8004 52.1323 54.8004C55.6693 54.8004 59.1118 56.5554 61.6363 59.1879L91.5388 89.0229C93.8338 91.4934 95.3458 94.6929 95.3458 97.9194C95.3593 146.533 95.3863 195.146 95.3863 243.76C95.4133 247.189 96.7228 250.604 99.3418 253.21L112.842 266.71C115.474 269.342 118.93 270.665 122.386 270.665C125.842 270.665 129.298 269.342 131.931 266.71L145.431 253.21C148.05 250.591 149.359 247.175 149.386 243.733C149.386 189.71 149.386 135.688 149.386 81.6654C149.386 74.4969 146.538 67.6389 141.475 62.5764Z" fill="#42E21E"/>
</svg>
